<svg width="24" height="24" viewBox="0 0 24 24" fill="none" xmlns="http://www.w3.org/2000/svg">
<path d="M11.6574 20C15.4573 20 18 17.3492 18 13.3619C18 6.76038 12.5403 4 8.76869 4C8.04826 4 7.57504 4.2775 7.57504 4.81059C7.57504 5.01506 7.66686 5.23414 7.82225 5.42401C8.69099 6.50479 9.50324 7.68781 9.5103 9.08991C9.5103 9.23597 9.50324 9.36741 9.47499 9.51346C9.05827 8.61524 8.3661 8.08946 7.73749 8.08946C7.40553 8.08946 7.17952 8.33044 7.17952 8.71018C7.17952 8.92926 7.22896 9.3382 7.22896 9.69603C7.22896 11.3683 6 12.2373 6 14.9247C6 17.9699 8.25309 20 11.6574 20ZM11.827 17.7508C10.5132 17.7508 9.6445 16.9402 9.6445 15.7207C9.6445 14.45 10.5062 14.0265 10.6192 13.1502C10.6333 13.0625 10.6969 13.026 10.7746 13.0917C11.0853 13.3838 11.2902 13.749 11.4597 14.1871C11.8199 13.6248 11.9612 12.566 11.834 11.4267C11.8199 11.3318 11.8905 11.2807 11.9753 11.3172C13.5009 12.0402 14.3202 13.6029 14.3202 15.0634C14.3202 16.524 13.4726 17.7508 11.827 17.7508Z" fill="currentColor"/>
</svg>
